mastitorrents.com
 
http://mastitorrents.com/forums/index.php
 
http://thepiratebay.se/user/HDvideos/0/7

PornPros Mini Pack 720p Mazinger Z33 XXX@Mastitorrents

Format                           : Windows Media
File size                        : 374 MiB
Duration                         : 21mn 6s
Overall bit rate mode            : Constant
Overall bit rate                 : 2 479 Kbps
Maximum Overall bit rate         : 2 651 Kbps
Encoded date                     : UTC 2011-11-29 08:28:32.646

Video
ID                               : 2
Format                           : VC-1
Format profile                   : MP@HL
Codec ID                         : WMV3
Codec ID/Info                    : Windows Media Video 9
Codec ID/Hint                    : WMV3
Description of the codec         : Windows Media Video 9 - Professional
Duration                         : 21mn 6s
Bit rate mode                    : Constant
Bit rate                         : 2 500 Kbps
Width                            : 1 280 pixels
Height                           : 720 pixels
Display aspect ratio             : 16:9
Frame rate                       : 23.976 fps
Nominal frame rate               : 29.970 fps
Bit depth                        : 8 bits
Scan type                        : Progressive
Compression mode                 : Lossy
Bits/(Pixel*Frame)               : 0.113
Stream size                      : 377 MiB

Audio
ID                               : 1
Format                           : WMA
Format version                   : Version 2
Codec ID                         : 161
Codec ID/Info                    : Windows Media Audio
Description of the codec         : Windows Media Audio 9.2 - 128 kbps, 44 kHz, stereo 2-pass CBR
Duration                         : 21mn 6s
Bit rate mode                    : Constant
Bit rate                         : 128 Kbps
Channel(s)                       : 2 channels
Sampling rate                    : 44.1 KHz
Bit depth                        : 16 bits
Stream size                      : 19.3 MiB (5%)